<?xml version="1.0" encoding="UTF-8"?>
<svg version="1.1" xmlns="http://www.w3.org/2000/svg" width="183" height="183">
<path d="M0 0 C60.39 0 120.78 0 183 0 C183 60.39 183 120.78 183 183 C122.61 183 62.22 183 0 183 C0 122.61 0 62.22 0 0 Z " fill="#FDDC00" transform="translate(0,0)"/>
<path d="M0 0 C60.39 0 120.78 0 183 0 C183 20.13 183 40.26 183 61 C168.81 61 154.62 61 140 61 C145 56 145 56 146.78125 54.39453125 C154.43033418 47.35389695 160.07354017 38.4772255 166 30 C165.38511719 30.20496094 164.77023438 30.40992187 164.13671875 30.62109375 C160.7578125 31.74739583 157.37890625 32.87369792 154 34 C152.22189039 35.98272931 152.22189039 35.98272931 150.4375 38.4375 C147.50211571 42.18707847 144.49192591 45.75679029 141.1875 49.1875 C140.45917969 49.94417969 139.73085937 50.70085938 138.98046875 51.48046875 C129.27058206 59.68869538 122.61277031 62.01903999 109.8125 61.4375 C108.46557724 61.40228951 107.11856433 61.37036784 105.77148438 61.34179688 C102.511962 61.26001674 99.25719637 61.14545337 96 61 C95.98541748 60.04633545 95.97083496 59.0926709 95.95581055 58.11010742 C95.89782208 54.57066415 95.82059042 51.03185676 95.73754883 47.49291992 C95.70430182 45.96144941 95.67626907 44.42985644 95.65356445 42.89819336 C95.62001282 40.69592113 95.5677009 38.49477088 95.51171875 36.29296875 C95.50532883 35.60849167 95.4989389 34.92401459 95.49235535 34.21879578 C95.3603721 29.94849478 95.18743103 29.18743103 92 26 C91.34 37.55 90.68 49.1 90 61 C72.51732568 61 68.11045176 58.99641486 57 48 C51.83738268 42.36251058 47.16048732 36.41170991 43 30 C41.64567321 30.14433868 40.29154775 30.29056661 38.9375 30.4375 C38.18339844 30.51871094 37.42929687 30.59992187 36.65234375 30.68359375 C33.42660504 31.06840205 30.21458005 31.53178087 27 32 C31.78459255 39.84989889 36.58889606 47.12348457 42.95703125 53.81640625 C45.09483994 56.10136812 47.04526574 58.55658217 49 61 C32.83 61 16.66 61 0 61 C0 40.87 0 20.74 0 0 Z " fill="#008FD9" transform="translate(0,0)"/>
<path d="M0 0 C2.46948242 1.53808594 2.46948242 1.53808594 5 4 C5.56762695 7.39160156 5.56762695 7.39160156 5.48828125 11.390625 C5.48120651 12.09523865 5.47413177 12.79985229 5.46684265 13.52581787 C5.43893357 15.76830891 5.37621287 18.00826871 5.3125 20.25 C5.28741211 21.77340134 5.26459978 23.29684197 5.24414062 24.8203125 C5.18912213 28.54769249 5.10287804 32.27359906 5 36 C8.92972798 36.03046899 12.8564291 36.013948 16.78588867 35.95727539 C18.76537306 35.93795986 20.74510204 35.95390251 22.72460938 35.97070312 C34.37011135 35.76432714 41.8143619 31.69298515 49.92773438 23.52319336 C50.61319336 22.80015015 50.61319336 22.80015015 51.3125 22.0625 C51.81974609 21.54888916 52.32699219 21.03527832 52.84960938 20.50610352 C55.60887771 17.66094182 57.89405301 14.78478231 60 11.4375 C63.09238384 6.93011627 67.44505059 6.37565925 72.5859375 5.375 C73.38257813 5.25125 74.17921875 5.1275 75 5 C65.96953295 24.51306949 46.79868038 41.06802785 27.125 48.9375 C18.99064763 51.84053833 12.83095398 52 4 52 C4 61.57 4 71.14 4 81 C7.3 81.33 10.6 81.66 14 82 C38.5200016 86.73103765 56.37707506 102.25217966 74.3125 118.5625 C75.16690674 119.33158691 75.16690674 119.33158691 76.03857422 120.11621094 C77.39884588 121.36892624 78.70517711 122.67974687 80 124 C80 124.66 80 125.32 80 126 C77.5902481 127.06101016 75.17450146 128.09873228 72.75 129.125 C72.06808594 129.42792969 71.38617188 129.73085937 70.68359375 130.04296875 C65.63070133 132.15242869 65.63070133 132.15242869 62.76953125 131.4609375 C60.56685835 129.6423952 58.78432889 127.6816745 56.9375 125.5 C42.25219455 108.88053237 25.88418289 97.37683658 4 93 C3.67 104.88 3.34 116.76 3 129 C-4 123 -4 123 -5 122 C-5.09967573 120.19361244 -5.13080538 118.38335314 -5.1328125 116.57421875 C-5.13410156 115.46755859 -5.13539062 114.36089844 -5.13671875 113.22070312 C-5.13285156 112.05474609 -5.12898438 110.88878906 -5.125 109.6875 C-5.12886719 108.53314453 -5.13273437 107.37878906 -5.13671875 106.18945312 C-5.13542969 105.07892578 -5.13414063 103.96839844 -5.1328125 102.82421875 C-5.13168457 101.80416748 -5.13055664 100.78411621 -5.12939453 99.7331543 C-5.01523537 97.32181133 -4.6919201 95.30216316 -4 93 C-27.14932989 95.46887458 -43.92993005 102.33072406 -60 120 C-60.57234375 120.71800781 -61.1446875 121.43601562 -61.734375 122.17578125 C-66.73831552 128.40856557 -66.73831552 128.40856557 -70.9375 129 C-71.948125 129 -72.95875 129 -74 129 C-69.65320539 113.40267818 -58.94687723 100.51028378 -44.9375 92.5 C-31.89191266 85.42965315 -17.86338304 81.61790789 -3 82 C-3.00523682 81.37544922 -3.01047363 80.75089844 -3.01586914 80.10742188 C-3.03684076 77.23829176 -3.04972376 74.36917785 -3.0625 71.5 C-3.07087891 70.51773438 -3.07925781 69.53546875 -3.08789062 68.5234375 C-3.10659124 62.91325243 -2.838879 57.54849101 -2 52 C-2.69222656 51.99742188 -3.38445312 51.99484375 -4.09765625 51.9921875 C-22.78600356 51.25351765 -38.30995681 40.83989127 -50.86328125 27.6015625 C-64 13.03226367 -64 13.03226367 -64 7 C-62.27318563 6.49193553 -60.54342021 5.99389533 -58.8125 5.5 C-57.36810547 5.08234375 -57.36810547 5.08234375 -55.89453125 4.65625 C-50.72417778 3.48402411 -50.72417778 3.48402411 -48 4 C-46.16373559 5.93963029 -44.74867091 7.69955863 -43.25 9.875 C-42.37419955 11.0751892 -41.49524404 12.27308192 -40.61328125 13.46875 C-39.95706787 14.3659375 -39.95706787 14.3659375 -39.28759766 15.28125 C-33.5908663 22.88553304 -26.62475414 30.68762293 -18 35 C-15.12089412 35.23274209 -12.25853505 35.41972757 -9.375 35.5625 C-8.57320313 35.60568359 -7.77140625 35.64886719 -6.9453125 35.69335938 C-4.9637489 35.79951457 -2.98189729 35.90026855 -1 36 C-1.01160156 34.741875 -1.02320312 33.48375 -1.03515625 32.1875 C-1.10282139 21.40759802 -0.84072317 10.74924626 0 0 Z " fill="#CB0333" transform="translate(91,25)"/>
<path d="M0 0 C11.941875 -0.2784375 11.941875 -0.2784375 24.125 -0.5625 C26.60789551 -0.64443604 29.09079102 -0.72637207 31.64892578 -0.81079102 C43.36953936 -1.03399998 51.86434989 -0.75105852 61.20019531 6.76416016 C69.24353127 13.18732642 79.1005774 14.35009623 89 16 C88.67 25.9 88.34 35.8 88 46 C85.69 46.226875 83.38 46.45375 81 46.6875 C68.69482227 48.12949318 50.11493934 51.88506066 41 61 C37.97043757 61.08870641 34.9631329 61.11526582 31.93359375 61.09765625 C31.1286145 61.09664917 30.32363525 61.09564209 29.4942627 61.09460449 C26.47532739 61.08935614 23.45641233 61.075395 20.4375 61.0625 C10.3209375 61.0315625 10.3209375 61.0315625 0 61 C0 40.87 0 20.74 0 0 Z " fill="#78BD1F" transform="translate(0,61)"/>
<path d="M0 0 C0.77943466 0.00222061 1.55886932 0.00444122 2.36192322 0.00672913 C3.25512268 0.00684998 4.14832214 0.00697083 5.06858826 0.00709534 C6.01351135 0.0122113 6.95843445 0.01732727 7.93199158 0.02259827 C8.79594543 0.02360535 9.65989929 0.02461243 10.55003357 0.02565002 C13.79064757 0.03089902 17.03124272 0.04486016 20.27183533 0.05775452 C27.51121033 0.07837952 34.75058533 0.09900452 42.20933533 0.12025452 C42.20933533 20.25025452 42.20933533 40.38025452 42.20933533 61.12025452 C31.47402283 61.36775452 31.47402283 61.36775452 20.52183533 61.62025452 C18.29087097 61.69308655 16.05990662 61.76591858 13.76133728 61.84095764 C1.27296849 62.07632046 -5.84722736 60.73752316 -15.79066467 53.12025452 C-24.93706544 48.52364451 -35.81005254 46.92627005 -45.79066467 45.12025452 C-45.79066467 35.55025452 -45.79066467 25.98025452 -45.79066467 16.12025452 C-43.29503967 15.91400452 -40.79941467 15.70775452 -38.22816467 15.49525452 C-24.41544859 14.03348549 -11.6281714 0.78090563 0 0 Z " fill="#78BD1F" transform="translate(140.79066467285156,60.87974548339844)"/>
<path d="M0 0 C8.91 0 17.82 0 27 0 C18.47151286 6.39636535 10.44666796 6.40122338 0 6 C0 4.02 0 2.04 0 0 Z " fill="#7ABC19" transform="translate(96,61)"/>
<path d="M0 0 C0 1.32 0 2.64 0 4 C-8.25 4 -16.5 4 -25 4 C-16.9802819 -0.00985905 -8.84462693 -0.30266784 0 0 Z " fill="#7AB121" transform="translate(87,118)"/>
<path d="M0 0 C5.28 0 10.56 0 16 0 C16 1.98 16 3.96 16 6 C10.03435204 5.49228528 5.36190101 3.61407872 0 1 C0 0.67 0 0.34 0 0 Z " fill="#82AE19" transform="translate(74,61)"/>
<path d="M0 0 C10.55808656 0.77904328 10.55808656 0.77904328 15 3 C15 3.33 15 3.66 15 4 C10.05 4 5.1 4 0 4 C0 2.68 0 1.36 0 0 Z " fill="#79B421" transform="translate(95,118)"/>
</svg>
